# xmcd CD database file
#
# Track frame offsets:
#	150
#	25569
#	53945
#	89697
#	117237
#	121982
#	154985
#	167214
#	188454
#	197736
#	221315
#	248026
#
# Disc length: 3537 seconds
#
# Revision: 0
# Processed by: cddbd v1.5.2PL0 Copyright (c) Steve Scherf et al.
# Submitted via: CDex 1.70beta2
#
DISCID=9d0dcf0c
DTITLE=Cyminology - Bemun
DYEAR=2006
DGENRE=Jazz
TTITLE0=Gofteguje man
TTITLE1=Aresuje didar
TTITLE2=Porr kon
TTITLE3=Bemun
TTITLE4=Sia
TTITLE5=Bi deldari
TTITLE6=Sefied
TTITLE7=Gosara
TTITLE8=Sabs
TTITLE9=Sochan schenass
TTITLE10=Meloton
TTITLE11=Sard
EXTD=YEAR: 2006
EXTT0=
EXTT1=
EXTT2=
EXTT3=
EXTT4=
EXTT5=
EXTT6=
EXTT7=
EXTT8=
EXTT9=
EXTT10=
EXTT11=
PLAYORDER=
